<?xml version="1.0" encoding="UTF-8" standalone="no"?>
<!-- Created with Inkscape (http://www.inkscape.org/) -->

<svg
   xmlns:dc="http://purl.org/dc/elements/1.1/"
   xmlns:cc="http://creativecommons.org/ns#"
   xmlns:rdf="http://www.w3.org/1999/02/22-rdf-syntax-ns#"
   xmlns:svg="http://www.w3.org/2000/svg"
   xmlns="http://www.w3.org/2000/svg"
   version="1.1"
   width="32"
   height="32"
   id="svg2991">
  <defs
     id="defs2993" />
  <metadata
     id="metadata2996">
    <rdf:RDF>
      <cc:Work
         rdf:about="">
        <dc:format>image/svg+xml</dc:format>
        <dc:type
           rdf:resource="http://purl.org/dc/dcmitype/StillImage" />
        <dc:title></dc:title>
      </cc:Work>
    </rdf:RDF>
  </metadata>
  <g
     id="layer1">
    <path
       d="m 1,17 0,-7 4,0 4,0 0,1 0,1 -3,0 -3,0 0,2 0,2 2.5,0 2.5,0 0,1 0,1 -2.5,0 -2.5,0 0,3 0,3 -1,0 -1,0 0,-7 z m 10,0 0,-7 1.25899,0 1.25899,0 3.207287,5.25 3.207287,5.25 0.03372,-5.25 L 20,10 l 1,0 1,0 0,7 0,7 -1.457846,0 -1.457846,0 L 16.292154,19.25 13.5,14.5 13.195209,19.25 12.890418,24 11.945209,24 11,24 11,17 z m 18,1.531385 0,-5.468615 -1.5,0.575604 -1.5,0.575604 0,-0.906989 C 26,11.970331 28.20449,10 29.7,10 l 1.3,0 0,7 0,7 -1,0 -1,0 0,-5.468615 z"
       id="path3208"
       style="fill:#000000" />
  </g>
</svg>
