<?xml version="1.0" encoding="UTF-8" standalone="no"?>
<!-- Created with Inkscape (http://www.inkscape.org/) -->

<svg
   xmlns:dc="http://purl.org/dc/elements/1.1/"
   xmlns:cc="http://creativecommons.org/ns#"
   xmlns:rdf="http://www.w3.org/1999/02/22-rdf-syntax-ns#"
   xmlns:svg="http://www.w3.org/2000/svg"
   xmlns="http://www.w3.org/2000/svg"
   xmlns:sodipodi="http://sodipodi.sourceforge.net/DTD/sodipodi-0.dtd"
   xmlns:inkscape="http://www.inkscape.org/namespaces/inkscape"
   id="svg2"
   version="1.1"
   inkscape:version="0.48.4 r9939"
   width="32"
   height="32"
   sodipodi:docname="MAG.svg">
  <metadata
     id="metadata8">
    <rdf:RDF>
      <cc:Work
         rdf:about="">
        <dc:format>image/svg+xml</dc:format>
        <dc:type
           rdf:resource="http://purl.org/dc/dcmitype/StillImage" />
        <dc:title></dc:title>
      </cc:Work>
    </rdf:RDF>
  </metadata>
  <defs
     id="defs6" />
  <sodipodi:namedview
     pagecolor="#ffffff"
     bordercolor="#666666"
     borderopacity="1"
     objecttolerance="10"
     gridtolerance="10"
     guidetolerance="10"
     inkscape:pageopacity="0"
     inkscape:pageshadow="2"
     inkscape:window-width="1366"
     inkscape:window-height="744"
     id="namedview4"
     showgrid="false"
     inkscape:zoom="5.6568543"
     inkscape:cx="-17.467853"
     inkscape:cy="23.938092"
     inkscape:window-x="0"
     inkscape:window-y="24"
     inkscape:window-maximized="1"
     inkscape:current-layer="svg2" />
  <path
     style="fill:#000000"
     d="m 0.00362864,29.444444 c 10.66666636,0 21.33333436,0 32.00000036,0 0,1.185186 0,1.398099 0,2.583284 l -32.005132,8.81e-4 z M 14.640566,22.507786 11.078116,20.809191 c 1.330246,-4.892068 2.145653,-8.594413 3.4759,-13.4864805 l 3.34254,1.7089898 C 23.80974,0.96570635 23.847735,0.93154983 31.996763,0.91526819 31.996763,2.1004534 32,2.3703704 32,3.5555556 25.115342,3.6372926 25.131878,3.6012005 20.431122,10.341631 l 2.161908,1.178416 c 3.634154,-4.9704834 3.61523,-5.0237276 9.414782,-4.9839008 0,1.1851852 -0.0078,1.5031829 -0.0078,2.6883681 -4.441356,0 -4.442218,0.00331 -7.146697,3.5135727 l 3.343667,1.992101 c -2.892346,4.017668 -4.87936,6.622424 -7.771704,10.640094 l -3.143545,-1.714138 -1.837812,3.404241 -2.496179,-0.972272 z m 1.930083,-10.886332 -2.667078,8.412917 5.703574,2.666518 4.427864,-7.04127 c -1.00137,-0.438326 -6.462988,-3.599842 -7.46436,-4.038165 z"
     id="path3010"
     inkscape:connector-curvature="0"
     sodipodi:nodetypes="ccccccccccccccccccccccccccc" />
</svg>
